<?xml version="1.0" encoding="utf-8"?>
<svg version="1.1" xmlns:xlink="http://www.w3.org/1999/xlink" width="20px" height="26px" xmlns="http://www.w3.org/2000/svg">
  <g transform="matrix(1 0 0 1 -345 -557 )">
    <path d="M 2.19298245614037 21.7822222222222  L 12.1271929824562 8.69555555555553  L 13.1359649122807 10.0244444444444  L 3.20175438596493 23.1111111111111  L 2.19298245614037 23.1111111111111  L 2.19298245614037 21.7822222222222  Z M 16.8530701754386 0.418888888888877  C 16.6337719298246 0.130000000000005  16.359649122807 0  16.0745614035088 0  C 15.8004385964912 0  15.515350877193 0.144444444444436  15.3070175438596 0.418888888888877  L 13.3004385964912 3.06222222222224  L 17.4122807017544 8.47888888888887  L 19.4188596491228 5.83555555555554  C 19.8464912280701 5.27222222222223  19.8464912280701 4.36222222222226  19.4188596491228 3.79888888888888  L 16.8530701754386 0.418888888888877  Z M 16.2390350877193 10.0244444444444  L 12.1271929824562 4.60777777777777  L 0 20.5833333333333  L 0 26  L 4.1118421052632 26  L 16.2390350877193 10.0244444444444  Z " fill-rule="nonzero" fill="#666666" stroke="none" transform="matrix(1 0 0 1 345 557 )" />
  </g>
</svg>