<?xml version="1.0" encoding="utf-8"?>
<svg version="1.1" xmlns:xlink="http://www.w3.org/1999/xlink" width="18px" height="22px" xmlns="http://www.w3.org/2000/svg">
  <g transform="matrix(1 0 0 1 -327 -796 )">
    <path d="M 1.97368421052633 18.4311111111111  L 10.9144736842105 7.35777777777776  L 11.8223684210527 8.48222222222222  L 2.88157894736844 19.5555555555555  L 1.97368421052633 19.5555555555555  L 1.97368421052633 18.4311111111111  Z M 15.1677631578948 0.354444444444435  C 14.9703947368421 0.110000000000004  14.7236842105263 0  14.4671052631579 0  C 14.2203947368421 0  13.9638157894737 0.122222222222215  13.7763157894737 0.354444444444435  L 11.9703947368421 2.59111111111113  L 15.671052631579 7.17444444444443  L 17.4769736842105 4.93777777777777  C 17.8618421052631 4.46111111111112  17.8618421052631 3.69111111111114  17.4769736842105 3.21444444444444  L 15.1677631578948 0.354444444444435  Z M 14.6151315789473 8.48222222222222  L 10.9144736842105 3.89888888888889  L 0 17.4166666666667  L 0 22  L 3.70065789473688 22  L 14.6151315789473 8.48222222222222  Z " fill-rule="nonzero" fill="#666666" stroke="none" transform="matrix(1 0 0 1 327 796 )" />
  </g>
</svg>