<?xml version="1.0" encoding="utf-8"?>
<svg version="1.1" xmlns:xlink="http://www.w3.org/1999/xlink" width="5px" height="21px" xmlns="http://www.w3.org/2000/svg">
  <g transform="matrix(1 0 0 1 -1873 -157 )">
    <path d="M 0 2.625  C 0 4.06875  1.125 5.25  2.5 5.25  C 3.875 5.25  5 4.06875  5 2.625  C 5 1.18125  3.875 0  2.5 0  C 1.125 0  0 1.18125  0 2.625  Z M 5 10.5  C 5 9.05625  3.875 7.875  2.5 7.875  C 1.125 7.875  0 9.05625  0 10.5  C 0 11.94375  1.125 13.125  2.5 13.125  C 3.875 13.125  5 11.94375  5 10.5  Z M 5 18.375  C 5 16.93125  3.875 15.75  2.5 15.75  C 1.125 15.75  0 16.93125  0 18.375  C 0 19.81875  1.125 21  2.5 21  C 3.875 21  5 19.81875  5 18.375  Z " fill-rule="nonzero" fill="#aaaaaa" stroke="none" transform="matrix(1 0 0 1 1873 157 )" />
  </g>
</svg>