<?xml version="1.0" encoding="utf-8"?>
<!-- Generator: Adobe Illustrator 23.0.1, SVG Export Plug-In . SVG Version: 6.00 Build 0)  -->
<svg version="1.1" id="Layer_1" xmlns="http://www.w3.org/2000/svg" xmlns:xlink="http://www.w3.org/1999/xlink" x="0px" y="0px"
	 viewBox="0 0 24 24" style="enable-background:new 0 0 24 24;" xml:space="preserve">
<style type="text/css">
	.st0{fill:#FFFFFF;}
</style>
<path class="st0" d="M21,1.8L19.2,0l-1.8,1.8L15.6,0l-1.8,1.8L12,0l-1.8,1.8L8.4,0L6.6,1.8L4.8,0L3,1.8L1.2,0v24L3,22.2L4.8,24
	l1.8-1.8L8.4,24l1.8-1.8L12,24l1.8-1.8l1.8,1.8l1.8-1.8l1.8,1.8l1.8-1.8l1.8,1.8V0L21,1.8z M20.4,20.5H3.6v-17h16.8V20.5z M4.8,15.6
	h14.4V18H4.8V15.6z M4.8,10.8h14.4v2.4H4.8V10.8z M4.8,6h14.4v2.4H4.8V6z"/>
</svg>
