<?xml version="1.0" encoding="utf-8"?>
<!-- Generator: Adobe Illustrator 23.0.1, SVG Export Plug-In . SVG Version: 6.00 Build 0)  -->
<svg version="1.1" id="Layer_1" xmlns="http://www.w3.org/2000/svg" xmlns:xlink="http://www.w3.org/1999/xlink" x="0px" y="0px"
	 viewBox="0 0 24 24" style="enable-background:new 0 0 24 24;" xml:space="preserve">
<style type="text/css">
	.st0{fill:#FFFFFF;}
</style>
<path class="st0" d="M24,9.6V4.8c0-1.3-1.1-2.4-2.4-2.4H2.4C1.1,2.4,0,3.5,0,4.8v4.8c1.3,0,2.4,1.1,2.4,2.4S1.3,14.4,0,14.4v4.8
	c0,1.3,1.1,2.4,2.4,2.4h19.2c1.3,0,2.4-1.1,2.4-2.4v-4.8c-1.3,0-2.4-1.1-2.4-2.4S22.7,9.6,24,9.6z M21.6,7.8
	c-1.4,0.8-2.4,2.4-2.4,4.2s1,3.3,2.4,4.2v3H2.4v-3c1.4-0.8,2.4-2.4,2.4-4.2s-1-3.3-2.4-4.2v-3h19.2V7.8z M10.8,15.6h2.4V18h-2.4
	C10.8,18,10.8,15.6,10.8,15.6z M10.8,10.8h2.4v2.4h-2.4C10.8,13.2,10.8,10.8,10.8,10.8z M10.8,6h2.4v2.4h-2.4
	C10.8,8.4,10.8,6,10.8,6z"/>
</svg>
