<?xml version="1.0" encoding="utf-8"?>
<!-- Generator: Adobe Illustrator 23.0.1, SVG Export Plug-In . SVG Version: 6.00 Build 0)  -->
<svg version="1.1" id="Layer_1" xmlns="http://www.w3.org/2000/svg" xmlns:xlink="http://www.w3.org/1999/xlink" x="0px" y="0px"
	 viewBox="0 0 24 24" style="enable-background:new 0 0 24 24;" xml:space="preserve">
<style type="text/css">
	.st0{fill:#FFFFFF;}
</style>
<path class="st0" d="M12.9,15.3l-2.8-2.7l0,0c1.9-2.1,3.3-4.5,4-7.1h3.2V3.3H9.8V1.1H7.6v2.2H0v2.2h12.2c-0.7,2.1-1.9,4.1-3.5,5.8
	c-1-1.1-1.9-2.4-2.5-3.7H4c0.8,1.8,1.9,3.5,3.3,5l-5.6,5.5l1.5,1.5l5.5-5.5l3.4,3.4C12.1,17.6,12.9,15.3,12.9,15.3z M19.1,9.8h-2.2
	L12,22.9h2.2l1.2-3.3h5.2l1.2,3.3H24L19.1,9.8z M16.2,17.5l1.8-4.7l1.8,4.7C19.8,17.5,16.2,17.5,16.2,17.5z"/>
</svg>
