<?xml version="1.0" encoding="utf-8"?>
<!-- Generator: Adobe Illustrator 23.0.1, SVG Export Plug-In . SVG Version: 6.00 Build 0)  -->
<svg version="1.1" id="Layer_1" xmlns="http://www.w3.org/2000/svg" xmlns:xlink="http://www.w3.org/1999/xlink" x="0px" y="0px"
	 viewBox="0 0 24 24" style="enable-background:new 0 0 24 24;" xml:space="preserve">
<style type="text/css">
	.st0{fill:#FFFFFF;}
</style>
<path class="st0" d="M12,3c1.7,0,3,1.4,3,3s-1.3,3-3,3S9,7.7,9,6S10.3,3,12,3 M12,18c4,0,8.7,1.9,9,3H3C3.3,19.9,8,18,12,18 M12,0
	C8.7,0,6,2.7,6,6s2.7,6,6,6s6-2.7,6-6S15.3,0,12,0z M12,15c-4,0-12,2-12,6v3h24v-3C24,17,16,15,12,15z"/>
</svg>
