<?xml version="1.0" encoding="utf-8"?>
<svg version="1.1" xmlns:xlink="http://www.w3.org/1999/xlink" width="9px" height="10px" xmlns="http://www.w3.org/2000/svg">
  <g transform="matrix(1 0 0 1 -1340 -293 )">
    <path d="M 9 0  C 7.62 0  6.5 1.12  6.5 2  L 6.5 6  L 8 6  L 8 10  L 9 10  L 9 0  Z M 4 0  L 4 3.5  L 3 3.5  L 3 0  L 2 0  L 2 3.5  L 1 3.5  L 1 0  L 0 0  L 0 3.5  C 0 4.605  0.895 5.5  2 5.5  L 2 10  L 3 10  L 3 5.5  C 4.105 5.5  5 4.605  5 3.5  L 5 0  L 4 0  Z " fill-rule="nonzero" fill="#ffffff" stroke="none" transform="matrix(1 0 0 1 1340 293 )" />
  </g>
</svg>