<?xml version="1.0" encoding="utf-8"?>
<svg version="1.1" xmlns:xlink="http://www.w3.org/1999/xlink" width="225px" height="153px" xmlns="http://www.w3.org/2000/svg">
  <defs>
    <path d="M 0 0  L 250 0  L 250 224.308  L 0 224.308  Z " fill-rule="evenodd" fill="black" id="path42" />
    <clipPath id="clip43">
      <use xlink:href="#path42" />
    </clipPath>
    <filter x="-50.00%" y="-50.00%" width="200.00%" height="200.00%" filterUnits="objectBoundingBox" id="filter44">
      <feColorMatrix type="matrix" values="1 0 0 0 0  0 1 0 0 0  0 0 1 0 0  0 0 0 1 0  " in="SourceGraphic" />
    </filter>
  </defs>
  <g transform="matrix(1 0 0 1 -494 -1716 )">
    <g transform="matrix(0.682097829769781 0 0 0.682097829769781 521.237771278777 1716 )" clip-path="url(#clip43)" filter="url(#filter44)">
      <g>
	<g>
		<path d="M137.183,213.754v-0.497l1.771-0.225h0.026l0.263,0.178v3.211c0.207-0.202,0.453-0.371,0.739-0.506    c0.289-0.134,0.608-0.199,0.958-0.199c0.427,0,0.815,0.099,1.172,0.298c0.354,0.196,0.637,0.503,0.85,0.923    c0.213,0.421,0.321,0.953,0.321,1.587c0,0.59-0.129,1.125-0.38,1.61c-0.251,0.485-0.614,0.865-1.084,1.145    s-1.02,0.421-1.648,0.421c-0.339,0-0.663-0.023-0.97-0.07c-0.307-0.047-0.561-0.105-0.769-0.172    c-0.207-0.067-0.336-0.126-0.383-0.172v-7.428L137.183,213.754z M139.243,220.779c0.044,0.096,0.164,0.175,0.351,0.234    c0.19,0.056,0.409,0.085,0.657,0.085c0.345,0,0.646-0.091,0.906-0.272c0.263-0.181,0.465-0.456,0.614-0.821    c0.146-0.365,0.219-0.815,0.219-1.353c0-0.473-0.064-0.871-0.196-1.186c-0.132-0.318-0.313-0.555-0.544-0.707    c-0.231-0.152-0.497-0.228-0.795-0.228c-0.251,0-0.485,0.058-0.698,0.169c-0.213,0.114-0.386,0.24-0.514,0.383V220.779z" />
		<path d="M145.575,223.239c0.041,0.023,0.126,0.047,0.257,0.064c0.129,0.018,0.251,0.026,0.365,0.026    c0.21,0,0.406-0.041,0.581-0.123c0.178-0.085,0.356-0.243,0.538-0.482c0.184-0.24,0.359-0.581,0.532-1.029h-0.593l-1.967-5.28    l-0.497-0.137v-0.555h2.674v0.555l-0.824,0.137l1.014,3.173l0.468,1.522l0.418-1.528l0.953-3.173l-0.704-0.131v-0.555h2.206v0.555    l-0.535,0.131c-0.506,1.557-0.915,2.796-1.233,3.726c-0.316,0.929-0.52,1.493-0.608,1.692c-0.237,0.599-0.462,1.069-0.675,1.417    c-0.21,0.348-0.456,0.611-0.733,0.792c-0.281,0.178-0.619,0.272-1.023,0.272c-0.108,0-0.225-0.009-0.354-0.023    c-0.126-0.018-0.213-0.035-0.26-0.058V223.239z" />
		<path d="M157.781,221.006v-6.551l-0.83-0.134v-0.619h1.444c0.155,0,0.316,0,0.482,0c0.169,0,0.278,0,0.327,0    c0.356,0,0.64,0,0.844,0c0.71,0,1.277,0.076,1.704,0.225c0.427,0.152,0.736,0.377,0.926,0.681c0.193,0.304,0.286,0.69,0.286,1.163    c0,0.321-0.061,0.631-0.184,0.932c-0.126,0.301-0.307,0.564-0.544,0.789c-0.237,0.225-0.517,0.389-0.842,0.488    c0.149,0.088,0.298,0.222,0.447,0.409c0.146,0.181,0.281,0.38,0.403,0.587s0.275,0.476,0.453,0.807    c0.21,0.394,0.377,0.693,0.506,0.885c0.129,0.196,0.248,0.307,0.359,0.333l0.412,0.129v0.567h-1.557    c-0.117,0-0.248-0.123-0.392-0.374c-0.14-0.251-0.33-0.637-0.57-1.163c-0.248-0.561-0.462-0.999-0.64-1.327    c-0.178-0.321-0.356-0.538-0.535-0.646c-0.698,0-1.122,0-1.274,0v2.82l1.037,0.117v0.573h-3.147v-0.573L157.781,221.006z     M161.249,217.138c0.251-0.292,0.377-0.731,0.377-1.312c0-0.5-0.129-0.885-0.386-1.16c-0.257-0.275-0.701-0.415-1.327-0.415    c-0.266,0-0.514,0.023-0.742,0.073l-0.164,0.023v3.217c0.114,0.009,0.289,0.012,0.532,0.012h0.657    C160.647,217.576,161.001,217.43,161.249,217.138z" />
		<path d="M166.299,221.036v-4.407l-0.763-0.213v-0.619l1.671-0.216h0.026l0.266,0.205v5.251l0.842,0.088v0.573h-2.896v-0.573    L166.299,221.036z M166.29,213.269c0.137-0.164,0.33-0.245,0.581-0.245h0.003c0.149,0,0.275,0.032,0.386,0.099    c0.108,0.07,0.19,0.158,0.248,0.272s0.088,0.231,0.088,0.359c0,0.245-0.07,0.444-0.21,0.602s-0.345,0.237-0.611,0.237h-0.006    c-0.202,0-0.368-0.067-0.497-0.205c-0.126-0.137-0.19-0.307-0.19-0.517C166.083,213.634,166.15,213.432,166.29,213.269z" />
		<path d="M174.761,216.045l-0.053,1.543h-0.731l-0.243-0.929c-0.047-0.108-0.146-0.19-0.289-0.243    c-0.146-0.053-0.321-0.079-0.523-0.079c-0.31,0-0.579,0.082-0.804,0.24c-0.228,0.161-0.406,0.4-0.532,0.719    c-0.126,0.321-0.19,0.713-0.19,1.183c0,0.546,0.076,0.996,0.225,1.359c0.152,0.359,0.357,0.625,0.617,0.795    c0.26,0.175,0.552,0.26,0.877,0.26c0.304,0,0.587-0.044,0.844-0.126s0.476-0.187,0.657-0.31l0.228,0.456    c-0.126,0.129-0.295,0.257-0.506,0.374c-0.21,0.123-0.444,0.222-0.707,0.298c-0.26,0.076-0.523,0.117-0.786,0.117    c-0.59,0-1.093-0.126-1.502-0.377c-0.409-0.251-0.716-0.596-0.92-1.032c-0.205-0.438-0.31-0.935-0.31-1.49    c0-0.573,0.117-1.093,0.348-1.56c0.231-0.468,0.576-0.839,1.031-1.113c0.453-0.275,1.005-0.412,1.648-0.412    C173.648,215.717,174.185,215.826,174.761,216.045z" />
		<path d="M177.379,221.036v-7.332l-0.821-0.105v-0.5l1.75-0.225h0.018l0.251,0.178v5.201l-0.02,0.602l2.344-2.446l-0.847-0.152    v-0.535h2.674v0.535l-0.824,0.178l-1.528,1.493l2.06,3.106l0.628,0.088v0.573h-2.63v-0.567l0.628-0.099l-1.481-2.402l-1.029,1.02    l0.026,0.558v0.83l0.757,0.094v0.567h-2.644v-0.573L177.379,221.036z" />
		<path d="M189.144,221.001l0.789-6.586l-1.125-0.131v-0.581h2.869l1.648,4.816l0.275,1.21l0.237-1.21l1.455-4.816h2.867v0.581    l-1.166,0.137l1.02,6.578l0.941,0.126v0.573h-3.121v-0.573l0.929-0.123l-0.663-4.769l-0.231-2.098l-0.362,1.444l-1.712,5.762    h-0.678l-1.896-5.178l-0.584-2.022l-0.167,2.086l-0.427,4.772l1.037,0.126v0.573h-2.869v-0.573L189.144,221.001z" />
		<path d="M203.997,217.722c0-0.281-0.035-0.503-0.105-0.666c-0.067-0.161-0.184-0.281-0.354-0.354    c-0.167-0.076-0.406-0.114-0.713-0.114c-0.593,0-1.216,0.146-1.873,0.432h-0.003l-0.263-0.479    c0.094-0.082,0.275-0.193,0.544-0.327c0.269-0.131,0.573-0.248,0.915-0.348c0.342-0.099,0.666-0.149,0.973-0.149    c0.511,0,0.915,0.064,1.207,0.199c0.292,0.132,0.503,0.345,0.634,0.637c0.129,0.292,0.193,0.684,0.193,1.181v3.267h0.64v0.517    c-0.511,0.123-0.894,0.184-1.154,0.184c-0.146,0-0.26-0.012-0.336-0.038c-0.079-0.023-0.134-0.073-0.172-0.149    c-0.035-0.076-0.056-0.193-0.056-0.351v-0.251c-0.187,0.187-0.435,0.362-0.745,0.532c-0.307,0.169-0.652,0.257-1.034,0.257    c-0.336,0-0.643-0.061-0.918-0.187c-0.275-0.123-0.494-0.31-0.657-0.567c-0.161-0.257-0.243-0.576-0.243-0.958    c0-0.468,0.161-0.853,0.485-1.154s0.751-0.523,1.277-0.666c0.526-0.143,1.113-0.213,1.759-0.213V217.722z M203.997,218.543    c-0.517,0-0.938,0.061-1.271,0.178c-0.33,0.117-0.57,0.269-0.719,0.462c-0.149,0.193-0.222,0.415-0.222,0.66    c0,0.365,0.091,0.637,0.272,0.807c0.181,0.172,0.427,0.257,0.736,0.257c0.164,0,0.362-0.047,0.596-0.14    c0.234-0.091,0.435-0.205,0.608-0.339V218.543z" />
		<path d="M207.903,223.239c0.041,0.023,0.126,0.047,0.257,0.064c0.129,0.018,0.251,0.026,0.365,0.026    c0.21,0,0.406-0.041,0.581-0.123c0.178-0.085,0.356-0.243,0.538-0.482c0.184-0.24,0.359-0.581,0.532-1.029h-0.593l-1.967-5.28    l-0.497-0.137v-0.555h2.674v0.555l-0.824,0.137l1.014,3.173l0.468,1.522l0.418-1.528l0.953-3.173l-0.704-0.131v-0.555h2.206v0.555    l-0.535,0.131c-0.506,1.557-0.915,2.796-1.233,3.726c-0.316,0.929-0.52,1.493-0.608,1.692c-0.237,0.599-0.462,1.069-0.675,1.417    c-0.21,0.348-0.456,0.611-0.733,0.792c-0.281,0.178-0.619,0.272-1.023,0.272c-0.108,0-0.225-0.009-0.354-0.023    c-0.126-0.018-0.213-0.035-0.26-0.058V223.239z" />
	</g>
</g>
      <polygon points="250,0 0,0 0,221.696 127.783,221.696 127.783,220.2 1.496,220.2 1.496,1.496 248.503,1.496 248.503,220.2   224.239,220.2 224.239,221.696 250,221.696 " />
      <g>
	<path d="M37.838,167.525v-11.814l-1.494-0.244v-1.121h2.606c0.277,0,0.565,0,0.871,0c0.3,0,0.5,0,0.588,0c0.641,0,1.153,0,1.524,0   c1.277,0,2.3,0.135,3.071,0.409c0.771,0.274,1.324,0.682,1.671,1.227c0.341,0.547,0.518,1.247,0.518,2.103   c0,0.577-0.112,1.136-0.335,1.677c-0.229,0.541-0.553,1.018-0.977,1.424c-0.429,0.406-0.935,0.697-1.524,0.877   c0.271,0.159,0.541,0.403,0.806,0.735s0.512,0.685,0.73,1.062c0.224,0.377,0.494,0.862,0.818,1.456   c0.377,0.715,0.682,1.247,0.912,1.597c0.229,0.35,0.447,0.55,0.647,0.603l0.741,0.227v1.024h-2.806   c-0.212,0-0.447-0.227-0.706-0.677c-0.253-0.447-0.594-1.147-1.024-2.097c-0.453-1.009-0.835-1.803-1.159-2.386   c-0.324-0.582-0.641-0.974-0.965-1.171c-1.259,0-2.024,0-2.295,0v5.089l1.865,0.209v1.033h-5.672v-1.033L37.838,167.525z    M44.098,160.547c0.453-0.53,0.677-1.318,0.677-2.368c0-0.9-0.229-1.597-0.694-2.095c-0.465-0.494-1.265-0.744-2.395-0.744   c-0.477,0-0.924,0.044-1.336,0.129l-0.294,0.044v5.801c0.206,0.015,0.524,0.024,0.959,0.024h1.183   C43.015,161.338,43.645,161.074,44.098,160.547z" />
	<path d="M56.53,167.504v-11.84l-1.565-0.262v-1.056h9.872l0.265,3.006h-1.224l-0.582-1.859h-4.542v5.257h3.083l0.282-1.6h1.224   v4.489h-1.224l-0.277-1.686h-3.089v5.533h5.213l1.071-2.483l1.212,0.362l-0.559,3.401H54.935v-1.033L56.53,167.504z" />
	<path d="M73.027,164.48h1.318l0.377,2.356c0.218,0.221,0.565,0.412,1.041,0.568c0.482,0.156,1.006,0.235,1.565,0.235   c0.941,0,1.653-0.206,2.13-0.615c0.477-0.409,0.712-0.977,0.712-1.703c0-0.474-0.129-0.88-0.394-1.221   c-0.259-0.341-0.618-0.641-1.065-0.9c-0.447-0.259-1.065-0.559-1.847-0.903c-0.682-0.3-1.294-0.627-1.836-0.977   c-0.547-0.353-1.012-0.806-1.406-1.368c-0.388-0.559-0.582-1.218-0.582-1.983c0-0.7,0.188-1.327,0.577-1.877   c0.382-0.55,0.935-0.98,1.647-1.291c0.712-0.309,1.547-0.465,2.495-0.465c0.577,0,1.118,0.047,1.606,0.147   c0.494,0.097,1.006,0.221,1.536,0.374c0.277,0.082,0.506,0.138,0.677,0.171l-0.124,3.168h-1.271l-0.435-2.236   c-0.124-0.129-0.377-0.247-0.759-0.356c-0.388-0.106-0.8-0.159-1.253-0.159c-1.706,0-2.553,0.671-2.553,2.009   c0,0.468,0.129,0.868,0.388,1.2s0.6,0.627,1.03,0.88c0.429,0.256,1.065,0.582,1.906,0.983c0.83,0.4,1.512,0.768,2.047,1.1   c0.53,0.329,0.983,0.753,1.359,1.268c0.382,0.512,0.571,1.121,0.571,1.821c0,0.677-0.194,1.327-0.582,1.95   c-0.388,0.624-0.971,1.133-1.753,1.527c-0.777,0.394-1.724,0.591-2.836,0.591c-0.682,0-1.306-0.062-1.865-0.185   c-0.565-0.124-1.147-0.282-1.753-0.477c-0.418-0.135-0.694-0.206-0.824-0.218L73.027,164.48z" />
	<path d="M93.854,167.504V155.52h-3.154l-0.712,4.01h-1.371l0.329-5.183h11.996l0.3,5.183h-1.353l-0.718-4.01h-3.036v11.985   l2.683,0.229v1.033h-7.437v-1.033L93.854,167.504z" />
	<path d="M107.61,167.507l4.666-13.161h2.259l4.707,13.161l1.2,0.227v1.033h-5.201v-1.033l1.547-0.229l-0.9-2.765h-5.572   l-0.859,2.765l1.618,0.229v1.033h-4.66l-0.012-1.033L107.61,167.507z M115.5,163.536l-2.03-6.128l-0.418-1.565l-0.412,1.583   l-1.947,6.11H115.5z" />
	<path d="M126.937,155.69l-1.365-0.241v-1.103h5.289v1.103l-1.612,0.241v7.137c0,1.715,0.312,2.948,0.93,3.698   c0.618,0.747,1.494,1.124,2.624,1.124c1.118,0,1.965-0.409,2.536-1.227c0.577-0.818,0.865-1.983,0.865-3.492v-7.24l-1.565-0.241   v-1.103h4.542v1.103l-1.406,0.241v7.154c0,1.327-0.224,2.433-0.671,3.321c-0.447,0.885-1.065,1.544-1.847,1.971   c-0.783,0.427-1.689,0.638-2.712,0.638c-1.312,0-2.377-0.218-3.201-0.65s-1.43-1.1-1.818-2.003c-0.394-0.9-0.588-2.068-0.588-3.501   V155.69z" />
	<path d="M147.029,167.525v-11.814l-1.5-0.244v-1.121h2.606c0.277,0,0.571,0,0.871,0c0.306,0,0.5,0,0.588,0c0.647,0,1.153,0,1.53,0   c1.271,0,2.295,0.135,3.065,0.409c0.771,0.274,1.33,0.682,1.671,1.227c0.347,0.547,0.518,1.247,0.518,2.103   c0,0.577-0.112,1.136-0.335,1.677s-0.547,1.018-0.977,1.424c-0.424,0.406-0.93,0.697-1.518,0.877   c0.271,0.159,0.541,0.403,0.806,0.735s0.506,0.685,0.73,1.062c0.218,0.377,0.488,0.862,0.812,1.456   c0.382,0.715,0.682,1.247,0.912,1.597c0.235,0.35,0.447,0.55,0.653,0.603l0.735,0.227v1.024h-2.801   c-0.218,0-0.453-0.227-0.706-0.677c-0.259-0.447-0.6-1.147-1.03-2.097c-0.447-1.009-0.835-1.803-1.153-2.386   c-0.324-0.582-0.647-0.974-0.971-1.171c-1.253,0-2.018,0-2.289,0v5.089l1.865,0.209v1.033h-5.678v-1.033L147.029,167.525z    M153.283,160.547c0.453-0.53,0.682-1.318,0.682-2.368c0-0.9-0.235-1.597-0.7-2.095c-0.465-0.494-1.259-0.744-2.389-0.744   c-0.482,0-0.93,0.044-1.336,0.129l-0.294,0.044v5.801c0.2,0.015,0.518,0.024,0.953,0.024h1.188   C152.201,161.338,152.836,161.074,153.283,160.547z" />
	<path d="M164.097,167.507l4.666-13.161h2.259l4.707,13.161l1.2,0.227v1.033h-5.201v-1.033l1.547-0.229l-0.9-2.765h-5.572   l-0.859,2.765l1.618,0.229v1.033h-4.66l-0.012-1.033L164.097,167.507z M171.987,163.536l-2.03-6.128l-0.418-1.565l-0.412,1.583   l-1.947,6.11H171.987z" />
	<path d="M184.177,167.516v-11.873l-1.565-0.244v-1.053h3.742l6.378,9.314l1.006,1.877v-9.902l-1.7-0.235v-1.053h4.701v1.053   l-1.571,0.244v13.123h-1.553l-6.531-9.502l-1.477-2.577v10.817l1.806,0.229v1.033h-4.801v-1.033L184.177,167.516z" />
	<path d="M207.788,167.504V155.52h-3.154l-0.712,4.01h-1.371l0.329-5.183h11.996l0.3,5.183h-1.353l-0.718-4.01h-3.036v11.985   l2.683,0.229v1.033h-7.437v-1.033L207.788,167.504z" />
</g>
      <g>
	<path d="M42.454,137.221h-6.803V35.734H72.58v6.525H42.454v43.037h28.461v6.595H42.454V137.221z" />
	<path d="M93.058,92.864v44.357h-6.803V35.734h13.883c9.903,0,17.147,2.338,21.729,7.01c4.582,4.675,6.873,11.662,6.873,20.963   c0,7.036-1.251,12.819-3.749,17.354c-2.501,4.538-6.689,7.939-12.565,10.204l20.13,45.956h-7.635l-18.95-44.357H93.058z    M93.058,86.617h9.511c6.154,0,10.896-1.896,14.231-5.692c3.331-3.796,4.997-9.441,4.997-16.939c0-7.635-1.701-13.141-5.102-16.521   c-3.401-3.375-8.757-5.067-16.071-5.067h-7.565V86.617z" />
	<path d="M146.649,137.221V35.734h6.803v101.487H146.649z" />
	<path d="M214.608,110.633c0,8.331-2.314,15.075-6.943,20.235c-4.626,5.16-10.505,7.741-17.632,7.741   c-8.097,0-14.599-1.181-19.505-3.542v-7.358c2.405,1.344,5.391,2.408,8.956,3.194c3.562,0.786,7.08,1.181,10.549,1.181   c5.184,0,9.441-1.967,12.772-5.9c3.334-3.933,5-8.933,5-14.996c0-5.599-1.181-10.04-3.542-13.328   c-2.358-3.284-6.87-6.569-13.535-9.856c-5.231-2.639-9.14-5.195-11.732-7.67c-2.592-2.475-4.512-5.356-5.762-8.644   c-1.248-3.284-1.873-7.218-1.873-11.799c0-5,1.017-9.441,3.054-13.328c2.037-3.889,4.883-6.908,8.538-9.061   c3.656-2.151,7.659-3.226,12.01-3.226c3.933,0,7.507,0.441,10.724,1.318c3.217,0.88,5.751,1.829,7.603,2.846l-2.639,6.525   c-5.137-2.636-10.368-3.957-15.689-3.957c-4.997,0-9.058,1.701-12.182,5.102c-3.124,3.401-4.687,7.904-4.687,13.503   c0,5.692,1.134,10.11,3.401,13.258c2.268,3.147,6.712,6.411,13.331,9.789c6.846,3.331,11.858,7.229,15.028,11.697   C213.022,98.822,214.608,104.248,214.608,110.633z" />
</g>
    </g>
  </g>
</svg>