<?xml version="1.0" encoding="utf-8"?>
<svg version="1.1" xmlns:xlink="http://www.w3.org/1999/xlink" width="176px" height="158px" xmlns="http://www.w3.org/2000/svg">
  <g transform="matrix(1 0 0 1 -674 -195 )">
    <path d="M 114.4 0  L 61.6 0  L 45.496 18  L 17.6 18  C 7.92 17.5555555555556  0 25.4555555555556  0 35.1111111111111  L 0 140.444444444444  C 0 150.1  7.92 158  17.6 158  L 158.4 158  C 168.08 158  176 150.1  176 140.444444444444  L 176 35.1111111111111  C 176 25.4555555555556  168.08 17.5555555555556  158.4 18  L 130.504 18  L 114.4 0  Z M 132 87.7777777777778  C 132 112.004444444444  112.288 131.666666666667  88 131.666666666667  C 63.712 131.666666666667  44 112.004444444444  44 87.7777777777778  C 44 63.5511111111111  63.712 43.8888888888889  88 43.8888888888889  C 112.288 43.8888888888889  132 63.5511111111111  132 87.7777777777778  Z " fill-rule="nonzero" fill="#000000" stroke="none" transform="matrix(1 0 0 1 674 195 )" />
  </g>
</svg>