<?xml version="1.0" encoding="utf-8"?>
<svg version="1.1" xmlns:xlink="http://www.w3.org/1999/xlink" width="20px" height="20px" xmlns="http://www.w3.org/2000/svg">
  <g transform="matrix(1 0 0 1 -752 -4525 )">
    <path d="M 20 10  C 20 4.48  15.52 0  9.99 0  C 4.47 0  0 4.48  0 10  C 0 15.52  4.47 20  9.99 20  C 15.52 20  20 15.52  20 10  Z M 18 10  C 18 14.42  14.42 18  10 18  C 5.58 18  2 14.42  2 10  C 2 5.58  5.58 2  10 2  C 14.42 2  18 5.58  18 10  Z " fill-rule="nonzero" fill="#bbbbbb" stroke="none" transform="matrix(1 0 0 1 752 4525 )" />
  </g>
</svg>