<?xml version="1.0" encoding="utf-8"?>
<svg version="1.1" xmlns:xlink="http://www.w3.org/1999/xlink" width="9px" height="15px" xmlns="http://www.w3.org/2000/svg">
  <g transform="matrix(1 0 0 1 -115 -234 )">
    <path d="M 9 5.25  C 9 2.3475  6.98785714285714 0  4.5 0  C 2.01214285714286 0  0 2.3475  0 5.25  C 0 9.1875  4.5 15  4.5 15  C 4.5 15  9 9.1875  9 5.25  Z M 4.5 12.66  C 3.16285714285714 10.6575  1.28571428571429 7.3875  1.28571428571429 5.25  C 1.28571428571429 3.18  2.72571428571429 1.5  4.5 1.5  C 6.27428571428571 1.5  7.71428571428571 3.18  7.71428571428571 5.25  C 7.71428571428571 7.41  5.86285714285714 10.6425  4.5 12.66  Z " fill-rule="nonzero" fill="#bbbbbb" stroke="none" transform="matrix(1 0 0 1 115 234 )" />
  </g>
</svg>