<?xml version="1.0" encoding="utf-8"?>
<svg version="1.1" xmlns:xlink="http://www.w3.org/1999/xlink" width="47px" height="43px" xmlns="http://www.w3.org/2000/svg">
  <g transform="matrix(1 0 0 1 7 0 )">
    <path d="M 16.5 0  C 29.66 0  40 9.46  40 21.5  C 40 33.54  29.66 43  16.5 43  C 3.34 43  -7 33.54  -7 21.5  C -7 9.46  3.34 0  16.5 0  Z " fill-rule="nonzero" fill="#caf982" stroke="none" />
    <path d="M 16.5 0.5  C 29.38 0.5  39.5 9.74  39.5 21.5  C 39.5 33.26  29.38 42.5  16.5 42.5  C 3.62 42.5  -6.5 33.26  -6.5 21.5  C -6.5 9.74  3.62 0.5  16.5 0.5  Z " stroke-width="1" stroke="#797979" fill="none" />
  </g>
</svg>