<?xml version="1.0" encoding="utf-8"?>
<svg version="1.1" xmlns:xlink="http://www.w3.org/1999/xlink" width="16px" height="12px" xmlns="http://www.w3.org/2000/svg">
  <g transform="matrix(1 0 0 1 -7 -9 )">
    <path d="M 6.4 10.8  C 6.4 10.14  5.68 9.6  4.8 9.6  C 3.92 9.6  3.208 10.14  3.208 10.8  C 3.208 11.46  3.92 12  4.8 12  C 5.68 12  6.4 11.46  6.4 10.8  Z M 2.616 0  L 0 0  L 0 1.2  L 1.6 1.2  L 4.48 5.754  L 3.4 7.224  C 3.272 7.392  3.2 7.59  3.2 7.8  C 3.2 8.46  3.92 9  4.8 9  L 14.4 9  L 14.4 7.8  L 5.136 7.8  C 5.024 7.8  4.936 7.734  4.936 7.65  L 4.96 7.578  L 5.68 6.6  L 11.64 6.6  C 12.24 6.6  12.768 6.354  13.04 5.982  L 15.904 2.088  C 15.968 2.004  16 1.902  16 1.8  C 16 1.47  15.64 1.2  15.2 1.2  L 3.368 1.2  L 2.616 0  Z M 14.4 10.8  C 14.4 10.14  13.68 9.6  12.8 9.6  C 11.92 9.6  11.208 10.14  11.208 10.8  C 11.208 11.46  11.92 12  12.8 12  C 13.68 12  14.4 11.46  14.4 10.8  Z " fill-rule="nonzero" fill="#ffffff" stroke="none" transform="matrix(1 0 0 1 7 9 )" />
  </g>
</svg>