<?xml version="1.0" encoding="utf-8"?>
<svg version="1.1" xmlns:xlink="http://www.w3.org/1999/xlink" width="29px" height="26px" xmlns="http://www.w3.org/2000/svg">
  <g transform="matrix(1 0 0 1 -17 -1006 )">
    <path d="M 14.645 19.6429999999998  L 15.6468181818182 16.9909999999999  L 12.2986363636364 13.7279999999999  L 12.3381818181818 13.689  C 14.6318181818182 11.1669999999999  16.2663636363636 8.26799999999979  17.2286363636364 5.20000000000009  L 21.0909090909091 5.20000000000009  L 21.0909090909091 2.60000000000004  L 11.8636363636364 2.60000000000004  L 11.8636363636364 0  L 9.22727272727273 0  L 9.22727272727273 2.60000000000004  L 0 2.60000000000004  L 0 5.18700000000007  L 14.7240909090909 5.18700000000007  C 13.8409090909091 7.69600000000018  12.4436363636364 10.0750000000001  10.5454545454545 12.1549999999999  C 9.31954545454546 10.816  8.30454545454545 9.347  7.50045454545455 7.79999999999991  L 4.86409090909091 7.79999999999991  C 5.82636363636364 9.91900000000006  7.14454545454545 11.921  8.79227272727272 13.7279999999999  L 2.08272727272727 20.2539999999999  L 3.95454545454545 22.1  L 10.5454545454545 15.6  L 14.645 19.6429999999998  Z M 29 26  L 23.0681818181818 10.4  L 20.4318181818182 10.4  L 14.5 26  L 17.1363636363636 26  L 18.6127272727273 22.1  L 24.8740909090909 22.1  L 26.3636363636364 26  L 29 26  Z M 23.8854545454546 19.5  L 19.6145454545455 19.5  L 21.75 13.8710000000001  L 23.8854545454546 19.5  Z " fill-rule="nonzero" fill="#ffffff" stroke="none" transform="matrix(1 0 0 1 17 1006 )" />
  </g>
</svg>