<?xml version="1.0" encoding="utf-8"?>
<svg version="1.1" xmlns:xlink="http://www.w3.org/1999/xlink" width="24px" height="26px" xmlns="http://www.w3.org/2000/svg">
  <g transform="matrix(1 0 0 1 -31 -409 )">
    <path d="M 24 0  L 22 1.94999999999998  L 20 0  L 18 1.94999999999998  L 16 0  L 14 1.94999999999998  L 12 0  L 10 1.94999999999998  L 8 0  L 6 1.94999999999998  L 4 0  L 2 1.94999999999998  L 0 0  L 0 26  L 2 24.05  L 4 26  L 6 24.05  L 8 26  L 10 24.05  L 12 26  L 14 24.05  L 16 26  L 18 24.05  L 20 26  L 22 24.05  L 24 26  L 24 0  Z M 21 4  L 21 22  L 3 22  L 3 4  L 21 4  Z M 4 19  L 4 16.9  L 20 16.9  L 20 19  L 4 19  Z M 4 14  L 4 12  L 20 12  L 20 14  L 4 14  Z M 4 9.10000000000004  L 4 7  L 20 7  L 20 9.10000000000004  L 4 9.10000000000004  Z " fill-rule="nonzero" fill="#ffffff" stroke="none" transform="matrix(1 0 0 1 31 409 )" />
  </g>
</svg>