<?xml version="1.0" encoding="utf-8"?>
<svg version="1.1" xmlns:xlink="http://www.w3.org/1999/xlink" width="24px" height="26px" xmlns="http://www.w3.org/2000/svg">
  <g transform="matrix(1 0 0 1 -31 -346 )">
    <path d="M 24 0  C 20.32 0  17.3333333333333 2.912  17 5.19999999999998  L 17 15.6  L 21 15.6  L 21 26  L 24 26  L 24 0  Z M 10.6666666666667 0  L 10.6666666666667 9.09999999999999  L 8 9.09999999999999  L 8 0  L 5.33333333333334 0  L 5.33333333333334 9.09999999999999  L 2.66666666666666 9.09999999999999  L 2.66666666666666 0  L 0 0  L 0 9.09999999999999  C 0 11.973  2.38666666666667 14.3  5.33333333333334 14.3  L 5.33333333333334 26  L 8 26  L 8 14.3  C 10.9466666666667 14.3  13.3333333333333 11.973  13.3333333333333 9.09999999999999  L 13.3333333333333 0  L 10.6666666666667 0  Z " fill-rule="nonzero" fill="#ffffff" stroke="none" transform="matrix(1 0 0 1 31 346 )" />
  </g>
</svg>