<?xml version="1.0" encoding="utf-8"?>
<svg version="1.1" xmlns:xlink="http://www.w3.org/1999/xlink" width="27px" height="20px" xmlns="http://www.w3.org/2000/svg">
  <g transform="matrix(1 0 0 1 -30 -285 )">
    <path d="M 24.3 10  C 24.3 8.62499999999998  25.515 7.5  27 7.5  L 27 2.5  C 27 1.11249999999998  25.785 0  24.3 0  L 2.7 0  C 1.215 0  0.0135000000000005 1.11249999999998  0.0135000000000005 2.5  L 0.0135000000000005 7.5  C 1.4985 7.5  2.7 8.62499999999998  2.7 10  C 2.7 11.375  1.4985 12.5  0 12.5  L 0 17.5  C 0 18.875  1.215 20  2.7 20  L 24.3 20  C 25.785 20  27 18.875  27 17.5  L 27 12.5  C 25.515 12.5  24.3 11.375  24.3 10  Z M 24.3 2.5  L 24.3 5.67500000000001  C 22.6935 6.5375  21.6 8.16249999999995  21.6 10  C 21.6 11.8375  22.6935 13.4625  24.3 14.325  L 24.3 17.5  L 2.7 17.5  L 2.7 14.325  C 4.3065 13.4625  5.4 11.8375  5.4 10  C 5.4 8.15  4.32 6.5375  2.7135 5.67500000000001  L 2.7 2.5  L 24.3 2.5  Z M 12.15 16.25  L 12.15 13.75  L 14.85 13.75  L 14.85 16.25  L 12.15 16.25  Z M 12.15 11.25  L 12.15 8.75  L 14.85 8.75  L 14.85 11.25  L 12.15 11.25  Z M 12.15 6.25  L 12.15 3.75  L 14.85 3.75  L 14.85 6.25  L 12.15 6.25  Z " fill-rule="nonzero" fill="#ffffff" stroke="none" transform="matrix(1 0 0 1 30 285 )" />
  </g>
</svg>