<?xml version="1.0" encoding="utf-8"?>
<svg version="1.1" xmlns:xlink="http://www.w3.org/1999/xlink" width="24px" height="26px" xmlns="http://www.w3.org/2000/svg">
  <g transform="matrix(1 0 0 1 -31 -93 )">
    <path d="M 5.33333333333334 14.3  L 5.33333333333334 11.7  L 8 11.7  L 8 14.3  L 5.33333333333334 14.3  Z M 21.3333333333333 2.59999999999999  C 22.8 2.59999999999999  24 3.76999999999996  24 5.19999999999998  L 24 23.4  C 24 24.83  22.8 26  21.3333333333333 26  L 2.66666666666666 26  C 1.18666666666667 26  0 24.83  0 23.4  L 0.0133333333333354 5.19999999999998  C 0.0133333333333354 3.76999999999996  1.18666666666667 2.59999999999999  2.66666666666666 2.59999999999999  L 4 2.59999999999999  L 4 0  L 6.66666666666666 0  L 6.66666666666666 3  L 17.3333333333333 3  L 17.3333333333333 0  L 20 0  L 20 2.59999999999999  L 21.3333333333333 2.59999999999999  Z M 2.66666666666666 5.19999999999998  L 2.66666666666666 8  L 21.3333333333333 8  L 21.3333333333333 5.19999999999998  L 2.66666666666666 5.19999999999998  Z M 3 23  L 21 23  L 21 10.4  L 3 10.4  L 3 23  Z M 16 11.7  L 16 14.3  L 18.6666666666667 14.3  L 18.6666666666667 11.7  L 16 11.7  Z M 10.6666666666667 11.7  L 10.6666666666667 14.3  L 13.3333333333333 14.3  L 13.3333333333333 11.7  L 10.6666666666667 11.7  Z " fill-rule="nonzero" fill="#ffffff" stroke="none" transform="matrix(1 0 0 1 31 93 )" />
  </g>
</svg>