<?xml version="1.0" encoding="utf-8"?>
<svg version="1.1" xmlns:xlink="http://www.w3.org/1999/xlink" width="647px" height="428px" xmlns="http://www.w3.org/2000/svg">
  <defs>
    <path d="M 0 0  L 24 0  L 24 24  L 0 24  Z " fill-rule="evenodd" fill="black" id="path8" />
    <clipPath id="clip9">
      <use xlink:href="#path8" />
    </clipPath>
    <filter x="-50.00%" y="-50.00%" width="200.00%" height="200.00%" filterUnits="objectBoundingBox" id="filter10">
      <feColorMatrix type="matrix" values="1 0 0 0 0  0 1 0 0 0  0 0 1 0 0  0 0 0 1 0  " in="SourceGraphic" />
    </filter>
    <mask fill="white" id="clip11">
      <path d="M 1138.5 994.5  C 1134.06 994.5  1130.5 990.94  1130.5 986.5  L 1130.5 575.5  C 1130.5 571.06  1134.06 567.5  1138.5 567.5  L 1768.5 567.5  C 1772.94 567.5  1776.5 571.06  1776.5 575.5  L 1776.5 986.5  C 1776.5 990.94  1772.94 994.5  1768.5 994.5  L 1138.5 994.5  " fill-rule="evenodd" />
    </mask>
  </defs>
  <g transform="matrix(1 0 0 1 -1130 -567 )">
    <g transform="matrix(17.8333333333333 0 0 17.8333333333333 1239.5 567 )" clip-path="url(#clip9)" filter="url(#filter10)">
      <path d="M7 18c-1.1 0-1.99.9-1.99 2S5.9 22 7 22s2-.9 2-2-.9-2-2-2zM1 2v2h2l3.6 7.59-1.35 2.45c-.16.28-.25.61-.25.96 0 1.1.9 2 2 2h12v-2H7.42c-.14 0-.25-.11-.25-.25l.03-.12.9-1.63h7.45c.75 0 1.41-.41 1.75-1.03l3.58-6.49c.08-.14.12-.31.12-.48 0-.55-.45-1-1-1H5.21l-.94-2H1zm16 16c-1.1 0-1.99.9-1.99 2s.89 2 1.99 2 2-.9 2-2-.9-2-2-2z" />
      <path d="M0 0h24v24H0z" fill="none" />
    </g>
    <path d="M 1138 994  C 1134.115 994  1131 990.885  1131 987  L 1131 575  C 1131 571.115  1134.115 568  1138 568  L 1769 568  C 1772.885 568  1776 571.115  1776 575  L 1776 987  C 1776 990.885  1772.885 994  1769 994  L 1138 994  Z " stroke-width="2" stroke="#333333" fill="none" mask="url(#clip11)" />
  </g>
</svg>