<svg xmlns="http://www.w3.org/2000/svg" width="30" height="30" viewBox="0 0 30 30">
  <g id="Group_7" data-name="Group 7" transform="translate(-1767 -26)">
    <g id="Ellipse_13" data-name="Ellipse 13" transform="translate(1775 29)" fill="none" stroke="#707070" stroke-width="2">
      <circle cx="6.5" cy="6.5" r="6.5" stroke="none"/>
      <circle cx="6.5" cy="6.5" r="5.5" fill="none"/>
    </g>
    <g id="Intersection_1" data-name="Intersection 1" transform="translate(1771 41)" fill="none">
      <path d="M0,10.577v-1.2H.054A10.4,10.4,0,0,1,10.367,0h.266A10.4,10.4,0,0,1,20.946,9.375H21v1.2a14.675,14.675,0,0,1-21,0Z" stroke="none"/>
      <path d="M 10.50014019012451 13 C 13.65927886962891 13 16.63758850097656 11.85200881958008 18.97389030456543 9.750139236450195 L 18.9563102722168 9.576230049133301 C 18.74710083007813 7.506650447845459 17.78665924072266 5.593010425567627 16.25190925598145 4.187820434570313 C 14.71100044250488 2.776980400085449 12.71549987792969 2.000000476837158 10.63302040100098 2.000000476837158 L 10.36727046966553 2.000000476837158 C 8.284749984741211 2.000000476837158 6.289199829101563 2.776990413665771 4.748199939727783 4.187850475311279 C 3.213380098342896 5.593050479888916 2.252909898757935 7.506680488586426 2.043699979782104 9.576220512390137 L 2.026144981384277 9.749884605407715 C 4.362606525421143 11.85190868377686 7.341001033782959 13 10.50014019012451 13 M 10.50014019012451 15 C 6.391359806060791 15 2.675029993057251 13.30765056610107 0 10.5767707824707 L 0 10.44646072387695 L 0 9.375070571899414 L 0.05384000018239021 9.375070571899414 C 0.5861899852752686 4.108900547027588 5.000500202178955 4.76837158203125e-07 10.36727046966553 4.76837158203125e-07 L 10.63302040100098 4.76837158203125e-07 C 15.99977970123291 4.76837158203125e-07 20.41381072998047 4.108900547027588 20.94617080688477 9.375070571899414 L 21 9.375070571899414 L 21 10.57706069946289 C 18.32497024536133 13.30794048309326 14.60892963409424 15 10.50014019012451 15 Z" stroke="none" fill="#707070"/>
    </g>
    <g id="Ellipse_14" data-name="Ellipse 14" transform="translate(1767 26)" fill="none" stroke="#707070" stroke-width="2">
      <circle cx="15" cy="15" r="15" stroke="none"/>
      <circle cx="15" cy="15" r="14" fill="none"/>
    </g>
  </g>
</svg>