<?xml version="1.0" encoding="utf-8"?>
<svg version="1.1" xmlns:xlink="http://www.w3.org/1999/xlink" width="21px" height="9px" xmlns="http://www.w3.org/2000/svg">
  <g transform="matrix(1 0 0 1 -387 -710 )">
    <path d="M 2.30263157894738 7.53999999999998  L 12.733552631579 3.00999999999999  L 13.7927631578948 3.47  L 3.36184210526318 7.99999999999999  L 2.30263157894738 7.99999999999999  L 2.30263157894738 7.53999999999998  Z M 17.6957236842106 0.144999999999996  C 17.4654605263158 0.0450000000000017  17.1776315789474 0  16.8782894736842 0  C 16.5904605263158 0  16.2911184210526 0.0499999999999972  16.0723684210526 0.144999999999996  L 13.9654605263158 1.06000000000001  L 18.2828947368422 2.935  L 20.389802631579 2.02  C 20.8388157894736 1.825  20.8388157894736 1.51000000000001  20.389802631579 1.315  L 17.6957236842106 0.144999999999996  Z M 17.0509868421052 3.47  L 12.733552631579 1.595  L 0 7.125  L 0 9  L 4.31743421052636 9  L 17.0509868421052 3.47  Z " fill-rule="nonzero" fill="#666666" stroke="none" transform="matrix(1 0 0 1 387 710 )" />
  </g>
</svg>