<?xml version="1.0" encoding="utf-8"?>
<svg version="1.1" xmlns:xlink="http://www.w3.org/1999/xlink" width="21px" height="14px" xmlns="http://www.w3.org/2000/svg">
  <g transform="matrix(1 0 0 1 -387 -546 )">
    <path d="M 2.30263157894738 11.7288888888889  L 12.733552631579 4.68222222222221  L 13.7927631578948 5.39777777777778  L 3.36184210526318 12.4444444444444  L 2.30263157894738 12.4444444444444  L 2.30263157894738 11.7288888888889  Z M 17.6957236842106 0.225555555555549  C 17.4654605263158 0.0700000000000026  17.1776315789474 0  16.8782894736842 0  C 16.5904605263158 0  16.2911184210526 0.0777777777777734  16.0723684210526 0.225555555555549  L 13.9654605263158 1.6488888888889  L 18.2828947368422 4.56555555555555  L 20.389802631579 3.14222222222222  C 20.8388157894736 2.83888888888889  20.8388157894736 2.34888888888891  20.389802631579 2.04555555555555  L 17.6957236842106 0.225555555555549  Z M 17.0509868421052 5.39777777777778  L 12.733552631579 2.48111111111111  L 0 11.0833333333333  L 0 14  L 4.31743421052636 14  L 17.0509868421052 5.39777777777778  Z " fill-rule="nonzero" fill="#666666" stroke="none" transform="matrix(1 0 0 1 387 546 )" />
  </g>
</svg>