<?xml version="1.0" encoding="utf-8"?>
<svg version="1.1" xmlns:xlink="http://www.w3.org/1999/xlink" width="10px" height="10px" xmlns="http://www.w3.org/2000/svg">
  <g transform="matrix(1 0 0 1 -116 -255 )">
    <path d="M 10 5  C 10 2.24  7.76 0  4.995 0  C 2.235 0  0 2.24  0 5  C 0 7.76  2.235 10  4.995 10  C 7.76 10  10 7.76  10 5  Z M 9 5  C 9 7.21  7.21 9  5 9  C 2.79 9  1 7.21  1 5  C 1 2.79  2.79 1  5 1  C 7.21 1  9 2.79  9 5  Z " fill-rule="nonzero" fill="#bbbbbb" stroke="none" transform="matrix(1 0 0 1 116 255 )" />
  </g>
</svg>