<?xml version="1.0" encoding="utf-8"?>
<svg version="1.1" xmlns:xlink="http://www.w3.org/1999/xlink" width="24px" height="23px" xmlns="http://www.w3.org/2000/svg">
  <g transform="matrix(1 0 0 1 -33 -220 )">
    <path d="M 2.63157894736842 19.2688888888888  L 14.5526315789474 7.6922222222222  L 15.7631578947368 8.86777777777777  L 3.8421052631579 20.4444444444444  L 2.63157894736842 20.4444444444444  L 2.63157894736842 19.2688888888888  Z M 20.2236842105263 0.370555555555545  C 19.9605263157895 0.115000000000004  19.6315789473684 0  19.2894736842105 0  C 18.9605263157895 0  18.6184210526316 0.127777777777771  18.3684210526316 0.370555555555545  L 15.9605263157895 2.7088888888889  L 20.8947368421053 7.50055555555554  L 23.3026315789474 5.16222222222221  C 23.8157894736842 4.6638888888889  23.8157894736842 3.85888888888889  23.3026315789474 3.36055555555555  L 20.2236842105263 0.370555555555545  Z M 19.4868421052632 8.86777777777777  L 14.5526315789474 4.07611111111111  L 0 18.2083333333333  L 0 23  L 4.93421052631579 23  L 19.4868421052632 8.86777777777777  Z " fill-rule="nonzero" fill="#ffffff" stroke="none" transform="matrix(1 0 0 1 33 220 )" />
  </g>
</svg>