<?xml version="1.0" encoding="utf-8"?>
<svg version="1.1" xmlns:xlink="http://www.w3.org/1999/xlink" width="20px" height="20px" xmlns="http://www.w3.org/2000/svg">
  <g transform="matrix(1 0 0 1 -32 -158 )">
    <path d="M 7.5 5  C 7.5 3.62500000000001  8.625 2.5  10 2.5  C 11.375 2.5  12.5 3.62500000000001  12.5 5  C 12.5 6.37499999999999  11.375 7.5  10 7.5  C 8.625 7.5  7.5 6.37499999999999  7.5 5  Z M 2.5 17.5  C 2.7875 16.6  6.6375 15  10 15  C 13.375 15  17.25 16.6125  17.5 17.5  L 2.5 17.5  Z M 15 5  C 15 2.23749999999998  12.7625 0  10 0  C 7.2375 0  5 2.23749999999998  5 5  C 5 7.76250000000002  7.2375 10  10 10  C 12.7625 10  15 7.76250000000002  15 5  Z M 20 17.5  C 20 14.175  13.3375 12.5  10 12.5  C 6.6625 12.5  0 14.175  0 17.5  L 0 20  L 20 20  L 20 17.5  Z " fill-rule="nonzero" fill="#ffffff" stroke="none" transform="matrix(1 0 0 1 32 158 )" />
  </g>
</svg>