<?xml version="1.0" encoding="utf-8"?>
<svg version="1.1" xmlns:xlink="http://www.w3.org/1999/xlink" width="251px" height="106px" xmlns="http://www.w3.org/2000/svg">
  <defs>
    <mask fill="white" id="clip2">
      <path d="M 23.5312499999999 105.165746569867  L 11.6269081858796 93  L 0 93  L 0 0  L 251 0  L 251 93  L 35.4360947349416 93  L 23.5312499999999 105.165746569867  Z " fill-rule="evenodd" />
    </mask>
  </defs>
  <g transform="matrix(1 0 0 1 -16 -872 )">
    <path d="M 23.5312499999999 105.165746569867  L 11.6269081858796 93  L 0 93  L 0 0  L 251 0  L 251 93  L 35.4360947349416 93  L 23.5312499999999 105.165746569867  Z " fill-rule="nonzero" fill="#ffffff" stroke="none" transform="matrix(1 0 0 1 16 872 )" />
    <path d="M 23.5312499999999 105.165746569867  L 11.6269081858796 93  L 0 93  L 0 0  L 251 0  L 251 93  L 35.4360947349416 93  L 23.5312499999999 105.165746569867  Z " stroke-width="2" stroke="#797979" fill="none" transform="matrix(1 0 0 1 16 872 )" mask="url(#clip2)" />
  </g>
</svg>