<?xml version="1.0" encoding="utf-8"?>
<svg version="1.1" xmlns:xlink="http://www.w3.org/1999/xlink" width="24px" height="22px" xmlns="http://www.w3.org/2000/svg">
  <g transform="matrix(1 0 0 1 -927 -413 )">
    <path d="M 2.63157894736844 18.4311111111111  L 14.5526315789474 7.35777777777776  L 15.7631578947369 8.48222222222222  L 3.84210526315792 19.5555555555555  L 2.63157894736844 19.5555555555555  L 2.63157894736844 18.4311111111111  Z M 20.2236842105264 0.354444444444435  C 19.9605263157895 0.110000000000004  19.6315789473684 0  19.2894736842105 0  C 18.9605263157895 0  18.6184210526316 0.122222222222215  18.3684210526316 0.354444444444435  L 15.9605263157895 2.59111111111113  L 20.8947368421053 7.17444444444443  L 23.3026315789474 4.93777777777777  C 23.8157894736842 4.46111111111112  23.8157894736842 3.69111111111114  23.3026315789474 3.21444444444444  L 20.2236842105264 0.354444444444435  Z M 19.4868421052631 8.48222222222222  L 14.5526315789474 3.89888888888889  L 0 17.4166666666667  L 0 22  L 4.93421052631584 22  L 19.4868421052631 8.48222222222222  Z " fill-rule="nonzero" fill="#666666" stroke="none" transform="matrix(1 0 0 1 927 413 )" />
  </g>
</svg>