<?xml version="1.0" encoding="utf-8"?>
<svg version="1.1" xmlns:xlink="http://www.w3.org/1999/xlink" width="18px" height="18px" xmlns="http://www.w3.org/2000/svg">
  <g transform="matrix(1 0 0 1 -1875 -95 )">
    <path d="M 17.49 16  L 12.5 11  L 11.71 11  L 11.43 10.73  C 12.41 9.59  13 8.11  13 6.5  C 13 2.91  10.09 0  6.5 0  C 2.91 0  0 2.91  0 6.5  C 0 10.09  2.91 13  6.5 13  C 8.11 13  9.59 12.41  10.73 11.43  L 11 11.71  L 11 12.5  L 16 17.49  L 17.49 16  Z M 11 6.5  C 11 8.99  8.99 11  6.5 11  C 4.01 11  2 8.99  2 6.5  C 2 4.01  4.01 2  6.5 2  C 8.99 2  11 4.01  11 6.5  Z " fill-rule="nonzero" fill="#aaaaaa" stroke="none" transform="matrix(1 0 0 1 1875 95 )" />
  </g>
</svg>