<?xml version="1.0" encoding="utf-8"?>
<svg version="1.1" xmlns:xlink="http://www.w3.org/1999/xlink" width="14px" height="20px" xmlns="http://www.w3.org/2000/svg">
  <g transform="matrix(1 0 0 1 -754 -4498 )">
    <path d="M 14 7  C 14 3.13  10.87 0  7 0  C 3.13 0  0 3.13  0 7  C 0 12.25  7 20  7 20  C 7 20  14 12.25  14 7  Z M 7 16.88  C 4.92 14.21  2 9.85  2 7  C 2 4.24  4.24 2  7 2  C 9.76 2  12 4.24  12 7  C 12 9.88  9.12 14.19  7 16.88  Z " fill-rule="nonzero" fill="#bbbbbb" stroke="none" transform="matrix(1 0 0 1 754 4498 )" />
  </g>
</svg>