<?xml version="1.0" encoding="utf-8"?>
<svg version="1.1" xmlns:xlink="http://www.w3.org/1999/xlink" width="33px" height="33px" xmlns="http://www.w3.org/2000/svg">
  <g transform="matrix(1 0 0 1 -12 -13 )">
    <path d="M 13.2 29.7  C 13.2 27.885  11.715 26.4  9.9 26.4  C 8.085 26.4  6.6165 27.885  6.6165 29.7  C 6.6165 31.515  8.085 33  9.9 33  C 11.715 33  13.2 31.515  13.2 29.7  Z M 5.3955 0  L 0 0  L 0 3.3  L 3.3 3.3  L 9.24 15.8235  L 7.0125 19.866  C 6.7485 20.328  6.6 20.8725  6.6 21.45  C 6.6 23.265  8.085 24.75  9.9 24.75  L 29.7 24.75  L 29.7 21  L 10.593 21  C 10.362 21.45  10.1805 21.2685  10.1805 21.0375  L 10.23 20.8395  L 11.715 18  L 24.0075 18  C 25.245 18.15  26.334 17.4735  26.895 16.4505  L 32.802 5.742  C 32.934 5.511  33 5.2305  33 4.95  C 33 4.0425  32.2575 3.3  31.35 3.3  L 6.9465 3.3  L 5.3955 0  Z M 29.7 29.7  C 29.7 27.885  28.215 26.4  26.4 26.4  C 24.585 26.4  23.1165 27.885  23.1165 29.7  C 23.1165 31.515  24.585 33  26.4 33  C 28.215 33  29.7 31.515  29.7 29.7  Z " fill-rule="nonzero" fill="#ffffff" stroke="none" transform="matrix(1 0 0 1 12 13 )" />
  </g>
</svg>